<svg width="150" height="48" viewBox="0 0 150 48" fill="none" xmlns="http://www.w3.org/2000/svg">
<path d="M37.7685 14.4096C37.5597 14.4177 37.3067 14.4659 37.0095 14.5542C36.7123 14.6345 36.4673 14.7349 36.2745 14.8554C36.0015 15.0241 35.7806 15.241 35.6119 15.506C35.4513 15.7711 35.2906 16.0843 35.13 16.4458C34.5918 17.7229 33.7846 19.7149 32.7083 22.4217C31.632 25.1205 30.5235 27.9357 29.383 30.8675H28.383C27.2264 27.759 26.1099 24.7631 25.0336 21.8795C23.9573 18.996 23.2264 17.0482 22.8408 16.0361C22.7444 15.7871 22.6159 15.5703 22.4553 15.3855C22.2946 15.1928 22.0818 15.012 21.8167 14.8434C21.5999 14.7068 21.3589 14.6064 21.0938 14.5422C20.8288 14.4699 20.5838 14.4257 20.3589 14.4096V13.5542H27.4312V14.4096C26.8288 14.4418 26.3187 14.502 25.9011 14.5904C25.4914 14.6787 25.2866 14.8353 25.2866 15.0602C25.2866 15.1486 25.3027 15.253 25.3348 15.3735C25.3669 15.494 25.395 15.5904 25.4191 15.6627C25.7163 16.4498 26.1982 17.7349 26.8649 19.5181C27.5316 21.2932 28.4794 23.8233 29.7083 27.1084C30.3187 25.6225 31.0215 23.8675 31.8167 21.8434C32.6119 19.8193 33.146 18.4297 33.4191 17.6747C33.6842 16.9438 33.8368 16.4378 33.877 16.1566C33.9252 15.8755 33.9492 15.6466 33.9492 15.4699C33.9492 15.2851 33.8649 15.1325 33.6962 15.012C33.5356 14.8835 33.3187 14.7751 33.0456 14.6867C32.7806 14.6064 32.5115 14.5462 32.2384 14.506C31.9653 14.4659 31.6882 14.4337 31.4071 14.4096V13.5542H37.7685V14.4096Z" fill="#777879"/>
<path d="M43.9131 30.6506H38.1661V29.8554C38.3509 29.8394 38.5396 29.8233 38.7324 29.8072C38.9332 29.7912 39.1059 29.759 39.2505 29.7108C39.4754 29.6386 39.64 29.5141 39.7444 29.3373C39.8569 29.1526 39.9131 28.9157 39.9131 28.6265V21.2892C39.9131 21.0321 39.8529 20.7992 39.7324 20.5904C39.6199 20.3735 39.4593 20.1928 39.2505 20.0482C39.0978 19.9518 38.877 19.8715 38.5878 19.8072C38.2986 19.7349 38.0336 19.6908 37.7926 19.6747V18.8916L41.9854 18.6265L42.1541 18.7952V28.4819C42.1541 28.7631 42.2063 28.996 42.3107 29.1807C42.4231 29.3655 42.5958 29.502 42.8288 29.5904C43.0055 29.6627 43.1782 29.7229 43.3468 29.7711C43.5155 29.8112 43.7043 29.8394 43.9131 29.8554V30.6506Z" fill="#777879"/>
<path d="M58.4914 30.6506H52.6721V29.8554C52.8569 29.8394 53.0577 29.8233 53.2745 29.8072C53.4994 29.7912 53.6842 29.759 53.8288 29.7108C54.0537 29.6386 54.2183 29.5141 54.3227 29.3373C54.4352 29.1526 54.4914 28.9157 54.4914 28.6265V22.5181C54.4914 21.6747 54.2906 21.0241 53.889 20.5663C53.4954 20.1084 53.0135 19.8795 52.4432 19.8795C52.0175 19.8795 51.628 19.9478 51.2745 20.0843C50.9211 20.2129 50.6079 20.3735 50.3348 20.5663C50.0697 20.751 49.8569 20.9518 49.6962 21.1687C49.5436 21.3775 49.4312 21.5462 49.3589 21.6747V28.506C49.3589 28.7791 49.4151 29.004 49.5276 29.1807C49.64 29.3574 49.8087 29.494 50.0336 29.5904C50.2023 29.6707 50.383 29.7309 50.5758 29.7711C50.7766 29.8112 50.9814 29.8394 51.1902 29.8554V30.6506H45.3709V29.8554C45.5557 29.8394 45.7444 29.8233 45.9372 29.8072C46.138 29.7912 46.3107 29.759 46.4553 29.7108C46.6802 29.6386 46.8448 29.5141 46.9492 29.3373C47.0617 29.1526 47.1179 28.9157 47.1179 28.6265V21.2892C47.1179 21.0161 47.0577 20.7671 46.9372 20.5422C46.8247 20.3092 46.6641 20.1205 46.4553 19.9759C46.3027 19.8795 46.1219 19.8112 45.9131 19.7711C45.7043 19.7229 45.4794 19.6908 45.2384 19.6747V18.8916L49.1902 18.6265L49.3589 18.7952V20.4699H49.4191C49.6119 20.2771 49.8529 20.0482 50.142 19.7831C50.4312 19.51 50.7043 19.2892 50.9613 19.1205C51.2585 18.9277 51.6119 18.7671 52.0215 18.6386C52.4312 18.51 52.893 18.4458 53.4071 18.4458C54.5476 18.4458 55.391 18.8032 55.9372 19.5181C56.4914 20.2249 56.7685 21.1687 56.7685 22.3494V28.5301C56.7685 28.8112 56.8167 29.0402 56.9131 29.2169C57.0095 29.3855 57.1741 29.5181 57.4071 29.6145C57.5998 29.6948 57.7645 29.751 57.9011 29.7831C58.0456 29.8153 58.2424 29.8394 58.4914 29.8554V30.6506Z" fill="#777879"/>
<path d="M71.2023 30.4337C70.8247 30.5703 70.4914 30.6787 70.2023 30.759C69.9211 30.8474 69.5998 30.8916 69.2384 30.8916C68.6119 30.8916 68.1099 30.747 67.7324 30.4578C67.3629 30.1606 67.1259 29.7309 67.0215 29.1687H66.9492C66.4272 29.747 65.8649 30.1888 65.2625 30.494C64.6681 30.7992 63.9492 30.9518 63.1059 30.9518C62.2143 30.9518 61.4794 30.6787 60.9011 30.1325C60.3308 29.5863 60.0456 28.8715 60.0456 27.988C60.0456 27.5301 60.1099 27.1205 60.2384 26.759C60.3669 26.3976 60.5597 26.0723 60.8167 25.7831C61.0175 25.5422 61.2826 25.3293 61.6119 25.1446C61.9412 24.9518 62.2505 24.7992 62.5396 24.6867C62.9011 24.5502 63.632 24.2972 64.7324 23.9277C65.8408 23.5582 66.5878 23.2691 66.9733 23.0602V21.8675C66.9733 21.7631 66.9492 21.5622 66.9011 21.2651C66.8609 20.9679 66.7685 20.6867 66.6239 20.4217C66.4633 20.1245 66.2344 19.8675 65.9372 19.6506C65.648 19.4257 65.2344 19.3133 64.6962 19.3133C64.3268 19.3133 63.9814 19.3775 63.6601 19.506C63.3468 19.6265 63.1259 19.755 62.9974 19.8916C62.9974 20.0522 63.0336 20.2892 63.1059 20.6024C63.1862 20.9157 63.2264 21.2048 63.2264 21.4699C63.2264 21.751 63.0978 22.008 62.8408 22.241C62.5918 22.4739 62.2424 22.5904 61.7926 22.5904C61.391 22.5904 61.0938 22.4498 60.9011 22.1687C60.7163 21.8795 60.6239 21.5582 60.6239 21.2048C60.6239 20.8353 60.7525 20.4819 61.0095 20.1446C61.2745 19.8072 61.6159 19.506 62.0336 19.241C62.395 19.0161 62.8328 18.8273 63.3468 18.6747C63.8609 18.5141 64.3629 18.4337 64.8529 18.4337C65.5276 18.4337 66.1139 18.4819 66.6119 18.5783C67.1179 18.6667 67.5757 18.8635 67.9854 19.1687C68.395 19.4659 68.7043 19.8715 68.9131 20.3855C69.13 20.8916 69.2384 21.5462 69.2384 22.3494C69.2384 23.498 69.2264 24.5181 69.2023 25.4096C69.1782 26.2932 69.1661 27.261 69.1661 28.3133C69.1661 28.6265 69.2183 28.8755 69.3227 29.0602C69.4352 29.245 69.6039 29.4016 69.8288 29.5301C69.9492 29.6024 70.138 29.6426 70.395 29.6506C70.6601 29.6586 70.9292 29.6627 71.2023 29.6627V30.4337ZM66.9974 24.0723C66.3147 24.2731 65.7163 24.4699 65.2023 24.6627C64.6882 24.8554 64.2103 25.0964 63.7685 25.3855C63.3669 25.6586 63.0496 25.9839 62.8167 26.3614C62.5838 26.7309 62.4673 27.1727 62.4673 27.6867C62.4673 28.3534 62.64 28.8434 62.9854 29.1566C63.3388 29.4699 63.7846 29.6265 64.3227 29.6265C64.893 29.6265 65.395 29.49 65.8288 29.2169C66.2625 28.9357 66.628 28.6064 66.9251 28.2289L66.9974 24.0723Z" fill="#777879"/>
<path d="M80.2264 31.0482C79.2063 31.0482 78.2264 30.8474 77.2866 30.4458C76.3549 30.0442 75.5276 29.4659 74.8047 28.7108C74.0898 27.9558 73.5195 27.0361 73.0938 25.9518C72.6681 24.8594 72.4553 23.6305 72.4553 22.2651C72.4553 20.8996 72.6641 19.6627 73.0818 18.5542C73.4994 17.4378 74.0778 16.4779 74.8167 15.6747C75.5476 14.8795 76.4111 14.2651 77.4071 13.8313C78.4031 13.3976 79.4673 13.1807 80.5998 13.1807C81.4432 13.1807 82.2063 13.2851 82.889 13.494C83.5717 13.7028 84.2223 13.996 84.8408 14.3735L85.3348 13.5542H86.2986L86.4071 19.6506H85.4191C85.2906 19.0562 85.0978 18.4137 84.8408 17.7229C84.5838 17.0241 84.2826 16.4337 83.9372 15.9518C83.5517 15.4056 83.0938 14.9799 82.5637 14.6747C82.0336 14.3614 81.4272 14.2048 80.7444 14.2048C79.9653 14.2048 79.2384 14.3775 78.5637 14.7229C77.897 15.0683 77.3187 15.5783 76.8288 16.253C76.3629 16.9036 75.9974 17.7309 75.7324 18.7349C75.4673 19.739 75.3348 20.8594 75.3348 22.0964C75.3348 23.1888 75.4713 24.1928 75.7444 25.1084C76.0255 26.0161 76.4231 26.8153 76.9372 27.506C77.4513 28.1888 78.0577 28.7229 78.7565 29.1084C79.4633 29.494 80.2504 29.6867 81.1179 29.6867C81.7685 29.6867 82.3669 29.5863 82.9131 29.3855C83.4593 29.1767 83.9332 28.9036 84.3348 28.5663C84.7364 28.2129 85.0898 27.8112 85.395 27.3614C85.7002 26.9116 85.9492 26.4217 86.142 25.8916L87.0456 26.3253C86.3549 28.0201 85.4392 29.2329 84.2986 29.9639C83.1581 30.6867 81.8006 31.0482 80.2264 31.0482Z" fill="#777879"/>
<path d="M99.2447 30.4337C98.8672 30.5703 98.5338 30.6787 98.2447 30.759C97.9635 30.8474 97.6423 30.8916 97.2808 30.8916C96.6543 30.8916 96.1523 30.747 95.7748 30.4578C95.4053 30.1606 95.1684 29.7309 95.0639 29.1687H94.9917C94.4696 29.747 93.9073 30.1888 93.3049 30.494C92.7105 30.7992 91.9917 30.9518 91.1483 30.9518C90.2567 30.9518 89.5218 30.6787 88.9435 30.1325C88.3732 29.5863 88.088 28.8715 88.088 27.988C88.088 27.5301 88.1523 27.1205 88.2808 26.759C88.4093 26.3976 88.6021 26.0723 88.8591 25.7831C89.0599 25.5422 89.325 25.3293 89.6543 25.1446C89.9836 24.9518 90.2929 24.7992 90.582 24.6867C90.9435 24.5502 91.6744 24.2972 92.7748 23.9277C93.8832 23.5582 94.6302 23.2691 95.0157 23.0602V21.8675C95.0157 21.7631 94.9917 21.5622 94.9435 21.2651C94.9033 20.9679 94.8109 20.6867 94.6664 20.4217C94.5057 20.1245 94.2768 19.8675 93.9796 19.6506C93.6904 19.4257 93.2768 19.3133 92.7386 19.3133C92.3692 19.3133 92.0238 19.3775 91.7025 19.506C91.3892 19.6265 91.1684 19.755 91.0398 19.8916C91.0398 20.0522 91.076 20.2892 91.1483 20.6024C91.2286 20.9157 91.2688 21.2048 91.2688 21.4699C91.2688 21.751 91.1403 22.008 90.8832 22.241C90.6342 22.4739 90.2848 22.5904 89.835 22.5904C89.4334 22.5904 89.1362 22.4498 88.9435 22.1687C88.7587 21.8795 88.6664 21.5582 88.6664 21.2048C88.6664 20.8353 88.7949 20.4819 89.0519 20.1446C89.317 19.8072 89.6583 19.506 90.076 19.241C90.4374 19.0161 90.8752 18.8273 91.3892 18.6747C91.9033 18.5141 92.4053 18.4337 92.8953 18.4337C93.57 18.4337 94.1563 18.4819 94.6543 18.5783C95.1603 18.6667 95.6182 18.8635 96.0278 19.1687C96.4374 19.4659 96.7467 19.8715 96.9555 20.3855C97.1724 20.8916 97.2808 21.5462 97.2808 22.3494C97.2808 23.498 97.2688 24.5181 97.2447 25.4096C97.2206 26.2932 97.2085 27.261 97.2085 28.3133C97.2085 28.6265 97.2607 28.8755 97.3652 29.0602C97.4776 29.245 97.6463 29.4016 97.8712 29.5301C97.9917 29.6024 98.1804 29.6426 98.4374 29.6506C98.7025 29.6586 98.9716 29.6627 99.2447 29.6627V30.4337ZM95.0398 24.0723C94.3571 24.2731 93.7587 24.4699 93.2447 24.6627C92.7306 24.8554 92.2527 25.0964 91.8109 25.3855C91.4093 25.6586 91.0921 25.9839 90.8591 26.3614C90.6262 26.7309 90.5097 27.1727 90.5097 27.6867C90.5097 28.3534 90.6824 28.8434 91.0278 29.1566C91.3812 29.4699 91.827 29.6265 92.3652 29.6265C92.9354 29.6265 93.4374 29.49 93.8712 29.2169C94.3049 28.9357 94.6704 28.6064 94.9676 28.2289L95.0398 24.0723Z" fill="#777879"/>
<path d="M111.281 20.1807C111.755 20.743 112.12 21.3976 112.377 22.1446C112.642 22.8835 112.775 23.7309 112.775 24.6867C112.775 25.6265 112.618 26.4859 112.305 27.2651C111.992 28.0361 111.578 28.6948 111.064 29.241C110.526 29.7952 109.927 30.2209 109.269 30.5181C108.61 30.8153 107.911 30.9639 107.172 30.9639C106.458 30.9639 105.871 30.8835 105.413 30.7229C104.956 30.5622 104.582 30.3735 104.293 30.1566H104.196V33.7229C104.196 34.012 104.253 34.253 104.365 34.4458C104.478 34.6386 104.65 34.7791 104.883 34.8675C105.076 34.9398 105.349 35.008 105.702 35.0723C106.064 35.1446 106.361 35.1847 106.594 35.1928V36H99.9555V35.1928C100.205 35.1767 100.445 35.1566 100.678 35.1325C100.911 35.1084 101.12 35.0683 101.305 35.012C101.546 34.9317 101.715 34.7912 101.811 34.5904C101.907 34.3896 101.956 34.1526 101.956 33.8795V21.241C101.956 21 101.895 20.7671 101.775 20.5422C101.654 20.3173 101.498 20.1365 101.305 20C101.16 19.9036 100.96 19.8313 100.702 19.7831C100.445 19.7269 100.196 19.6908 99.9555 19.6747V18.8916L104.004 18.6265L104.172 18.7711V20.1084L104.269 20.1325C104.686 19.6506 105.205 19.249 105.823 18.9277C106.441 18.6064 107.056 18.4458 107.666 18.4458C108.405 18.4458 109.08 18.6024 109.69 18.9157C110.309 19.2289 110.839 19.6506 111.281 20.1807ZM109.317 28.7229C109.638 28.2249 109.875 27.6466 110.028 26.988C110.18 26.3293 110.257 25.5944 110.257 24.7831C110.257 24.1888 110.192 23.5823 110.064 22.9639C109.935 22.3454 109.735 21.8072 109.462 21.3494C109.188 20.8835 108.831 20.506 108.389 20.2169C107.947 19.9277 107.417 19.7831 106.799 19.7831C106.205 19.7831 105.698 19.9157 105.281 20.1807C104.863 20.4378 104.502 20.747 104.196 21.1084V28.1325C104.269 28.3494 104.385 28.5743 104.546 28.8072C104.715 29.0402 104.899 29.241 105.1 29.4096C105.349 29.6104 105.618 29.7751 105.907 29.9036C106.196 30.0241 106.55 30.0843 106.968 30.0843C107.417 30.0843 107.851 29.9679 108.269 29.7349C108.686 29.494 109.036 29.1566 109.317 28.7229Z" fill="#777879"/>
<path d="M119.553 30.6506H113.806V29.8554C113.99 29.8394 114.179 29.8233 114.372 29.8072C114.573 29.7912 114.745 29.759 114.89 29.7108C115.115 29.6386 115.28 29.5141 115.384 29.3373C115.496 29.1526 115.553 28.9157 115.553 28.6265V21.2892C115.553 21.0321 115.492 20.7992 115.372 20.5904C115.259 20.3735 115.099 20.1928 114.89 20.0482C114.737 19.9518 114.516 19.8715 114.227 19.8072C113.938 19.7349 113.673 19.6908 113.432 19.6747V18.8916L117.625 18.6265L117.794 18.7952V28.4819C117.794 28.7631 117.846 28.996 117.95 29.1807C118.063 29.3655 118.235 29.502 118.468 29.5904C118.645 29.6627 118.818 29.7229 118.986 29.7711C119.155 29.8112 119.344 29.8394 119.553 29.8554V30.6506Z" fill="#777879"/>
<path d="M128.348 30.1325C127.826 30.3494 127.332 30.5301 126.866 30.6747C126.4 30.8273 125.83 30.9036 125.155 30.9036C124.159 30.9036 123.456 30.6546 123.047 30.1566C122.645 29.6506 122.444 28.9398 122.444 28.0241V19.9759H120.3V18.8193H122.492V15.1205H124.685V18.8193H128.095V19.9759H124.709V26.6145C124.709 27.1124 124.725 27.5301 124.757 27.8675C124.798 28.1968 124.886 28.4859 125.022 28.7349C125.151 28.9679 125.344 29.1446 125.601 29.2651C125.858 29.3855 126.203 29.4458 126.637 29.4458C126.838 29.4458 127.131 29.4297 127.516 29.3976C127.91 29.3574 128.187 29.3092 128.348 29.253V30.1325Z" fill="#777879"/>
<path d="M140.794 30.4337C140.416 30.5703 140.083 30.6787 139.794 30.759C139.512 30.8474 139.191 30.8916 138.83 30.8916C138.203 30.8916 137.701 30.747 137.324 30.4578C136.954 30.1606 136.717 29.7309 136.613 29.1687H136.541C136.018 29.747 135.456 30.1888 134.854 30.494C134.259 30.7992 133.541 30.9518 132.697 30.9518C131.806 30.9518 131.071 30.6787 130.492 30.1325C129.922 29.5863 129.637 28.8715 129.637 27.988C129.637 27.5301 129.701 27.1205 129.83 26.759C129.958 26.3976 130.151 26.0723 130.408 25.7831C130.609 25.5422 130.874 25.3293 131.203 25.1446C131.533 24.9518 131.842 24.7992 132.131 24.6867C132.492 24.5502 133.223 24.2972 134.324 23.9277C135.432 23.5582 136.179 23.2691 136.565 23.0602V21.8675C136.565 21.7631 136.541 21.5622 136.492 21.2651C136.452 20.9679 136.36 20.6867 136.215 20.4217C136.055 20.1245 135.826 19.8675 135.529 19.6506C135.239 19.4257 134.826 19.3133 134.288 19.3133C133.918 19.3133 133.573 19.3775 133.251 19.506C132.938 19.6265 132.717 19.755 132.589 19.8916C132.589 20.0522 132.625 20.2892 132.697 20.6024C132.778 20.9157 132.818 21.2048 132.818 21.4699C132.818 21.751 132.689 22.008 132.432 22.241C132.183 22.4739 131.834 22.5904 131.384 22.5904C130.982 22.5904 130.685 22.4498 130.492 22.1687C130.308 21.8795 130.215 21.5582 130.215 21.2048C130.215 20.8353 130.344 20.4819 130.601 20.1446C130.866 19.8072 131.207 19.506 131.625 19.241C131.986 19.0161 132.424 18.8273 132.938 18.6747C133.452 18.5141 133.954 18.4337 134.444 18.4337C135.119 18.4337 135.705 18.4819 136.203 18.5783C136.709 18.6667 137.167 18.8635 137.577 19.1687C137.986 19.4659 138.296 19.8715 138.504 20.3855C138.721 20.8916 138.83 21.5462 138.83 22.3494C138.83 23.498 138.818 24.5181 138.794 25.4096C138.769 26.2932 138.757 27.261 138.757 28.3133C138.757 28.6265 138.81 28.8755 138.914 29.0602C139.027 29.245 139.195 29.4016 139.42 29.5301C139.541 29.6024 139.729 29.6426 139.986 29.6506C140.251 29.6586 140.52 29.6627 140.794 29.6627V30.4337ZM136.589 24.0723C135.906 24.2731 135.308 24.4699 134.794 24.6627C134.28 24.8554 133.802 25.0964 133.36 25.3855C132.958 25.6586 132.641 25.9839 132.408 26.3614C132.175 26.7309 132.059 27.1727 132.059 27.6867C132.059 28.3534 132.231 28.8434 132.577 29.1566C132.93 29.4699 133.376 29.6265 133.914 29.6265C134.484 29.6265 134.986 29.49 135.42 29.2169C135.854 28.9357 136.219 28.6064 136.516 28.2289L136.589 24.0723Z" fill="#777879"/>
<path d="M147.541 30.6506H141.745V29.8554C141.93 29.8394 142.127 29.8233 142.336 29.8072C142.545 29.7831 142.717 29.751 142.854 29.7108C143.079 29.6386 143.247 29.5141 143.36 29.3373C143.472 29.1526 143.529 28.9157 143.529 28.6265V14.8675C143.529 14.5783 143.464 14.3092 143.336 14.0602C143.215 13.8032 143.055 13.6024 142.854 13.4578C142.709 13.3614 142.444 13.2731 142.059 13.1928C141.673 13.1124 141.364 13.0643 141.131 13.0482V12.2771L145.601 12L145.769 12.1807V28.4819C145.769 28.7631 145.822 28.996 145.926 29.1807C146.031 29.3574 146.199 29.494 146.432 29.5904C146.609 29.6707 146.782 29.7309 146.95 29.7711C147.127 29.8112 147.324 29.8394 147.541 29.8554V30.6506Z" fill="#777879"/>
<rect y="13.6943" width="16.7227" height="16.6057" fill="#777879"/>
<path d="M8.36133 30.3008L-4.27033e-06 13.6951L16.7227 13.6951L8.36133 30.3008Z" fill="#C4C4C4"/>
<path d="M117.812 16.4306C118.117 16.0852 118.269 15.6836 118.269 15.2258C118.269 14.8161 118.121 14.4587 117.824 14.1535C117.534 13.8402 117.161 13.6836 116.703 13.6836C116.293 13.6836 115.936 13.8483 115.631 14.1776C115.334 14.5069 115.185 14.8924 115.185 15.3342C115.185 15.7519 115.334 16.1254 115.631 16.4547C115.936 16.776 116.293 16.9366 116.703 16.9366C117.145 16.9366 117.514 16.7679 117.812 16.4306Z" fill="#777879"/>
<path d="M42.2725 16.4413C42.5777 16.0959 42.7303 15.6943 42.7303 15.2365C42.7303 14.8269 42.5817 14.4694 42.2845 14.1642C41.9954 13.851 41.6219 13.6943 41.1641 13.6943C40.7544 13.6943 40.397 13.859 40.0918 14.1883C39.7946 14.5176 39.646 14.9032 39.646 15.3449C39.646 15.7626 39.7946 16.1361 40.0918 16.4654C40.397 16.7867 40.7544 16.9473 41.1641 16.9473C41.6058 16.9473 41.9753 16.7787 42.2725 16.4413Z" fill="#777879"/>
</svg>
