<svg width="1400" height="1024" viewBox="0 0 1400 1024" fill="none" xmlns="http://www.w3.org/2000/svg">
<g clip-path="url(#clip0_80_2)">
<path d="M124.844 619.236C-231.916 679.278 -485.574 972.927 -441.708 1275.11C-397.847 1577.3 -73.0737 1773.59 283.686 1713.55C640.451 1653.5 894.105 1359.86 850.244 1057.67C806.382 755.488 481.609 559.193 124.844 619.236Z" fill="#003566"/>
<path d="M246.266 661.89L240.762 703.814C240.159 704.371 239.243 705.117 238.113 705.957C234.128 708.798 228.968 710.984 228.406 710.008C228.057 709.447 229.272 708.051 230.224 706.982C231.875 705.025 233.652 704 234.776 703.487C234.255 689.185 233.693 674.933 233.171 660.636C235.08 660.773 236.989 660.963 238.898 661.149C241.369 661.378 243.84 661.612 246.266 661.89ZM265.994 652.577C273.756 664.224 281.514 675.865 289.272 687.511C288.841 688.629 288.233 690.303 287.54 692.31C285.717 697.898 285.286 700.881 284.851 700.832C284.461 700.788 284.112 698.553 284.203 688.771C273.448 678.428 262.703 668.09 251.947 657.746C253.461 657.932 256.454 658.117 259.923 656.721C262.92 655.604 264.91 653.739 265.994 652.577ZM157.738 693.755C157.085 694.311 155.525 695.848 154.877 698.455C153.885 702.462 155.875 705.723 156.178 706.235C153.449 702.369 150.669 698.455 147.94 694.589L152.928 688.673L157.738 693.755ZM190.733 697.713C190.687 700.041 190.642 702.419 190.601 704.747C194.419 706.606 198.232 708.427 202.045 710.286C200.744 709.032 198.926 706.933 197.452 703.907C196.323 701.53 195.801 699.387 195.503 697.757L190.733 697.713Z" fill="white"/>
<path d="M309.303 486.479L310.129 480.328C312.078 480.05 315.547 479.816 319.405 481.353C326.905 484.336 329.983 491.506 330.637 493.044C330.935 493.136 336.445 494.767 336.834 498.169C337.179 501.239 333.108 504.085 330.201 506.13C329.117 506.877 327.684 507.858 325.689 508.599C320.793 510.372 316.327 509.39 314.073 508.649C313.77 508.136 313.425 507.389 313.207 506.413C312.772 504.456 313.248 502.825 313.511 502.127C312.078 496.909 310.691 491.691 309.303 486.479ZM282.77 575.627L247.005 567.383L253.244 608.838V654.628H260.788C262.308 646.291 264.343 639.955 265.953 635.62C267.255 632.174 269.549 626.586 270.242 619.552C270.328 618.619 270.506 616.711 270.587 614.383C270.804 610.097 270.673 606.559 270.587 604.04L274.708 615.315L268.161 649.688C268.465 649.737 268.723 649.829 269.027 649.873C268.592 651.46 268.121 653.09 267.685 654.671C271.24 656.58 274.795 658.493 278.309 660.402C278.607 660.216 278.997 659.938 279.175 659.469C279.519 658.444 278.349 657.283 277.266 655.789C276.526 654.764 275.574 653.226 274.708 651.176C273.711 650.947 272.673 650.713 271.67 650.478C271.108 650.342 270.587 650.249 270.025 650.108C271.888 650.527 273.711 650.947 275.574 651.367C279.559 640.838 282.334 633.57 283.985 629.192C286.456 622.763 287.58 619.879 288.102 615.359C288.664 610.561 288.233 606.929 286.887 598.729C285.894 592.399 284.547 584.618 282.77 575.627Z" fill="#3B5672"/>
<path d="M331.978 614.198C335.229 613.821 338.045 612.938 340.344 612.006C339.999 614.71 339.695 617.409 339.346 620.113C340.475 623.652 341.559 627.796 342.253 632.501C343.681 642.049 343.164 650.293 342.253 656.351H337.442C336.399 649.595 335.229 644.192 334.363 640.468C332.976 634.595 331.933 631.384 330.935 625.517C330.115 620.855 329.766 616.989 329.553 614.427C330.333 614.334 331.113 614.29 331.978 614.198ZM317.324 611.4C320.271 611.586 322.616 612.425 324.13 613.123C323.831 615.315 323.482 617.551 323.178 619.737C324.565 623.652 325.953 628.216 326.991 633.385C328.768 642.283 328.986 650.157 328.728 656.302H324.261C321.831 648.014 319.365 641.536 317.496 637.022C315.592 632.409 313.729 628.401 312.554 622.3C311.774 618.014 311.643 614.383 311.643 611.913C313.03 611.586 314.985 611.259 317.324 611.4ZM318.539 509.532C316.762 509.396 315.197 509.068 314.028 508.649C313.334 508.976 312.6 509.254 311.906 509.581C310.863 510.23 309.476 511.304 308.22 512.934C305.227 516.942 305.404 521.413 305.141 528.817C305.009 532.59 304.756 538.037 304.103 544.7L290.882 518.665C289.145 513.725 288.061 511.353 287.631 511.446C287.322 511.538 287.322 512.749 287.631 515.121C282.162 510.557 281.038 510.742 280.734 511.069C279.995 511.816 281.56 515.404 283.808 517.732C285.762 519.733 287.97 520.524 289.317 520.851C289.317 520.851 296.558 543.583 300.933 554.111C305.313 564.635 309.303 557.792 309.303 557.792C319.75 558.021 330.242 558.304 340.693 558.533C340.085 551.5 339.695 546.003 339.478 542.65C338.571 528.768 338.526 522.018 334.146 515.311C333.194 513.867 332.282 512.792 331.72 512.187C329.68 510.977 327.644 509.766 325.603 508.556C324.044 509.161 321.573 509.723 318.539 509.532Z" fill="white"/>
<path d="M260.616 499.657C259.401 498.403 257.284 495.933 256.15 492.068C255.588 490.203 254.98 488.016 255.629 485.59C256.712 481.588 260.788 479.254 263.867 478.556C267.118 477.858 267.508 479.396 274.708 480.236C280.258 480.841 282.724 480.47 283.296 481.91C283.595 482.706 283.418 484.145 280.516 487.128C278.957 487.967 277.392 488.807 275.833 489.69L260.616 499.657ZM218.431 650.805C219.17 651.694 219.864 652.485 220.558 653.183C224.588 657.327 228.315 659.142 230.964 660.031C234.169 661.1 234.776 660.494 246.266 661.89C254.504 662.872 254.591 663.243 256.413 662.823C262.135 661.52 262.92 657.654 269.113 656.351C272.627 655.653 273.275 656.678 277.352 656.351C281.251 656.073 285.717 654.72 290.573 651.367C286.765 641.814 281.904 631.291 275.66 620.342C274.622 618.527 273.539 616.662 272.41 614.803C271.022 612.518 269.589 610.239 268.075 607.954C263.913 601.619 259.705 595.888 255.588 590.719L233.561 589.972C228.837 608.887 224.117 627.796 219.429 646.705C219.13 648.057 218.78 649.453 218.431 650.805ZM182.449 609.214C184.965 612.611 187.522 616.526 189.867 621.089C198.105 637.022 199.837 652.577 200.055 662.637C198.88 674.142 197.751 685.647 196.586 697.201C196.105 697.528 195.412 697.898 194.5 698.133C192.161 698.689 190.252 697.571 189.69 697.201C187.264 681.361 184.879 665.571 182.449 649.737L178.504 667.294L159.257 694.076C158.655 694.033 156.568 693.847 154.791 692.032C153.576 690.816 153.1 689.42 152.882 688.722C153.834 685.696 155.485 680.99 158.26 675.631C161.769 668.88 163.46 667.992 164.24 664.317C165.541 658.025 162.29 653.275 158.042 644.846C155.439 639.628 152.148 631.754 149.98 620.904C151.884 615.921 153.748 610.981 155.657 605.997C159.039 607.349 163.678 608.794 169.314 609.399C174.514 610.005 179.031 609.727 182.449 609.214ZM329.031 510.606C330.029 515.311 329.811 519.128 329.507 521.549C329.117 524.673 328.687 527.743 326.434 529.237C325.132 530.077 323.568 530.12 323.051 530.169C322.833 530.169 320.58 530.213 318.843 529.052C317.152 527.885 316.458 525.884 315.42 519.455C314.944 516.615 314.423 512.934 313.987 508.692C312.863 509.297 311.734 509.908 310.61 510.513C311.04 533.01 309.784 551.08 308.569 563.424C306.878 580.518 302.974 609.628 309.308 612.006C311.258 612.753 313.253 610.61 318.539 611.635C320.231 611.962 320.621 612.284 325.436 613.5C328.945 614.383 329.811 614.476 330.768 614.427C331.33 614.427 331.978 614.334 336.445 613.123C340.349 612.055 340.303 612.006 341.26 611.82C345.114 611.166 347.068 612.333 347.98 612.006C350.405 611.122 349.929 598.314 339.392 550.851L331.806 512.236L329.031 510.606Z" fill="#EE4A46"/>
<path d="M276.744 514.33C274.359 511.255 271.807 508.976 269.503 507.296C266.207 507.253 262.92 507.253 259.573 507.253C257.973 508.229 254.98 510.372 252.514 514.281C249.912 518.43 249.264 522.432 249.086 524.439C247.998 538.55 246.914 552.617 245.83 566.734L252.206 570.414L260.966 587.6L268.202 584.291L262.829 573.767C270.546 574.509 278.309 575.256 286.021 576.003C286.583 561.657 285.762 549.684 284.81 540.927C283.332 527.28 281.342 520.339 276.744 514.33Z" fill="#FFC300"/>
<path d="M267.164 584.711C269.371 587.039 270.328 588.484 269.979 589.045C269.761 589.416 268.987 589.416 267.64 589.045C270.85 594.585 270.723 595.659 270.414 595.937C269.761 596.542 266.9 594.258 265.123 592.349C263.351 590.441 262.308 588.533 261.7 587.181C263.568 586.39 265.386 585.55 267.164 584.711ZM274.708 487.455C275.443 488.622 276.486 490.574 276.79 493.185C277.18 496.68 276.268 501.986 273.017 503.338C271.756 503.85 270.506 503.665 269.589 503.338V507.204C268.895 507.716 267.381 508.741 265.214 508.883C262.348 509.112 260.267 507.667 259.619 507.204C259.573 505.11 259.791 503.338 260.054 502.127C260.226 501.337 260.399 500.497 260.662 499.608C261.052 498.262 261.568 497.095 262.049 496.119C261.442 494.674 261.837 492.995 262.92 492.068C263.867 491.228 265.214 491.086 266.338 491.691C266.602 491.043 267.336 489.363 269.068 488.202C271.589 486.522 274.273 487.313 274.708 487.455ZM309.957 484.145C309.521 485.546 309 487.597 308.741 490.061C308.478 492.766 307.83 499.565 311.04 501.571C311.557 501.893 312.468 502.269 313.856 502.078C314.332 502.498 314.813 502.918 315.284 503.338C315.025 502.776 314.767 501.942 314.635 500.868C314.463 499.101 314.985 497.7 315.284 497.051C314.727 496.539 313.683 495.464 313.03 493.741C312.25 491.599 312.468 489.739 312.6 488.943C312.25 488.758 311.861 488.48 311.471 488.06C310.129 486.664 309.997 484.799 309.957 484.145Z" fill="white"/>
<path d="M249.562 542.699C252.985 541.718 255.588 538.833 256.282 535.197C257.016 531.195 255.33 527.045 251.988 524.859C255.198 525.186 257.933 523.043 258.368 520.431C258.799 517.542 256.368 515.213 254.763 514.281C254.418 514.096 251.512 512.465 248.691 514.145C246.352 515.54 245.096 518.572 245.618 521.734C243.192 520.061 240.195 520.011 237.941 521.549C235.607 523.179 235.08 525.927 234.994 526.44C236.513 531.102 238.073 535.709 239.592 540.371L249.562 542.699ZM141.352 602.785C141.352 602.317 141.96 599.852 143.17 594.912C143.56 593.424 144.643 588.953 147.636 578.517C150.456 568.735 150.887 567.71 151.97 566.45C155.307 562.584 160.169 561.701 163.207 561.516C164.63 561.886 166.28 562.263 168.144 562.448C170.311 562.677 172.261 562.633 173.866 562.492C174.949 552.247 176.033 542.045 177.117 531.8C176.681 524.346 176.555 516.287 176.863 507.667C177.031 503.06 177.294 498.632 177.679 494.347C178.722 494.118 180.023 493.883 181.583 493.834C183.228 493.834 184.616 494.069 185.7 494.347C186.565 505.246 187.087 517.127 187.087 529.793C187.052 544.651 186.267 558.348 185.006 570.785C184.53 579.356 184.92 586.297 185.482 591.232C186.089 596.728 186.743 599.34 185.137 601.341C183.704 603.113 181.107 603.576 168.878 601.853C163.506 601.106 159.039 600.266 155.702 599.618V595.283L151.449 602.693L165.455 632.594L161.338 635.435C159.52 633.199 157.044 630.124 154.224 626.444C142.436 611.122 141.22 606.695 141.352 602.785Z" fill="#3B5672"/>
<path d="M164.199 633.527C165.065 634.132 166.625 635.391 167.794 637.627C168.574 639.164 168.924 640.604 169.055 641.585C169.273 642.469 169.182 642.747 169.055 642.796C168.574 643.074 167.146 640.184 164.29 637.67C163.116 636.645 162.032 635.947 161.252 635.528C162.245 634.879 163.242 634.224 164.199 633.527ZM184.398 494.161C185.396 493 186.743 491.228 187.998 488.851C189.431 486.152 191.386 481.539 190.556 480.885C190.034 480.514 188.257 481.539 182.449 488.294C182.013 486.201 181.628 485.127 181.279 485.17C180.717 485.219 180.327 488.153 180.064 493.976C181.497 494.02 182.97 494.069 184.398 494.161Z" fill="white"/>
<path d="M176.165 550.758C171.825 553.086 167.541 555.414 163.207 557.743C158.472 558.768 154.705 558.49 151.844 557.884C147.894 557.045 146.988 555.834 143.696 555.649C138.532 555.414 137.195 558.206 132.896 558.719C124.485 559.7 115.381 550.567 116.383 546.887C116.722 545.633 118.287 545.071 121.406 543.953C124.961 542.699 128.09 542.508 130.121 542.606C134.197 538.086 137.883 536.641 140.446 536.085C146.552 534.777 150.153 537.945 156.827 536.456C160.685 535.573 163.546 533.615 165.283 532.22C166.189 531.8 172.093 529.095 177.81 532.312C180.114 533.615 181.537 535.382 182.363 536.641L181.714 541.205L176.165 550.758ZM255.629 590.719C255.284 582.617 254.935 574.558 254.591 566.45C250.686 565.011 245.962 563.659 240.498 562.677C235.252 561.794 230.528 561.467 226.502 561.516C226.538 565.616 226.973 571.205 228.67 577.541C230.052 582.66 231.921 586.853 233.561 589.972L255.629 590.719Z" fill="#FFC300"/>
<path d="M202.222 544.188C202.825 547.448 203.908 550.011 204.734 551.685C205.255 555.785 206.076 561.608 207.245 568.686C209.63 583.222 210.846 586.712 213.317 587.551C216.006 588.484 219.211 585.785 221.814 583.593C225.328 580.659 227.191 577.257 228.103 575.207C227.586 570.643 227.019 566.079 226.502 561.559L254.591 566.45L255.067 590.719C249.562 585.921 244.058 581.123 238.549 576.325C236.078 571.156 234.559 568.686 233.951 568.92C233.652 569.062 233.607 569.994 233.825 571.761C229.227 566.685 228.275 566.734 227.971 566.963C227.232 567.524 228.493 571.39 230.7 574.089C232.786 576.608 235.298 577.677 236.772 578.146C237.683 580.425 239.197 583.642 241.582 587.131C244.534 591.373 248.651 595.752 252.55 598.593C254.332 599.896 256.019 600.872 257.583 601.433C259.401 602.088 261.006 602.131 262.176 601.384C263.736 600.408 264.125 598.08 264.951 593.424C265.518 590.256 265.776 586.483 265.088 579.634C264.693 575.676 263.913 570.272 262.348 563.986C260.662 561.516 258.621 558.768 256.15 555.971C253.897 553.408 251.684 551.265 249.603 549.449C249.562 547.214 249.517 544.935 249.476 542.699L247.653 539.995C248.18 538.784 247.871 537.339 246.96 536.549C246.225 535.895 245.142 535.758 244.23 536.178C243.147 535.48 241.972 534.64 240.807 533.615C238.027 531.194 236.164 528.583 234.954 526.489C234.432 528.256 233.779 530.911 233.693 534.128C233.561 537.852 233.44 542.045 235.86 543.861C236.382 544.237 237.855 545.164 240.676 544.466C240.934 544.935 241.41 546.003 241.369 547.399C241.324 548.332 241.106 549.03 240.888 549.498C238.159 550.011 235.389 550.524 232.655 550.987C231.571 551.172 230.488 551.363 229.399 551.592C228.406 552.852 227.409 554.155 226.411 555.551C221.515 562.448 218.087 569.34 215.661 575.627C213.145 567.432 210.628 559.231 208.076 551.036C207.813 549.591 207.463 547.448 207.377 544.842C207.245 541.298 207.595 538.741 207.245 538.692C207.073 538.643 206.774 539.248 205.99 542.138C203.822 535.616 202.825 534.406 202.303 534.499C201.483 534.64 201.397 539.858 202.222 544.188ZM155.657 599.71C160.771 600.97 166.625 601.989 173.04 602.502C176.337 602.785 179.461 602.878 182.449 602.878C182.19 603.62 181.801 604.972 181.887 606.651C181.973 607.72 182.19 608.609 182.449 609.258C179.031 609.77 174.514 610.097 169.314 609.492C163.718 608.887 159.085 607.442 155.657 606.09C155.875 605.348 156.092 604.274 156.133 602.971C156.133 601.575 155.875 600.457 155.657 599.71ZM167.273 554.482C170.443 551.172 171.699 547.399 172.261 545.355C172.959 545.447 175.425 545.633 177.856 543.861C180.281 542.094 181.107 539.575 181.279 538.877C181.714 540.464 182.145 542.508 182.317 544.978C182.535 548.146 182.97 554.853 179.719 557.181C178.595 558.021 177.765 557.743 176.291 559.046C174.99 560.163 174.301 561.559 173.906 562.541C172.478 562.677 170.792 562.677 168.924 562.541C166.756 562.355 164.847 561.979 163.242 561.559V557.743C164.412 556.996 165.845 555.971 167.273 554.482Z" fill="white"/>
<path d="M237.293 594.863C239.025 594.863 240.412 596.401 240.412 598.265C240.412 600.13 239.025 601.619 237.293 601.619C235.556 601.619 234.169 600.13 234.169 598.265C234.169 596.401 235.556 594.863 237.293 594.863ZM243.795 647.872C245.527 647.872 246.914 649.361 246.914 651.225C246.914 653.09 245.527 654.628 243.795 654.628C242.063 654.628 240.63 653.09 240.63 651.225C240.63 649.361 242.063 647.872 243.795 647.872ZM278.435 646.476C280.167 646.476 281.56 648.014 281.56 649.873C281.56 651.738 280.167 653.226 278.435 653.226C276.698 653.226 275.276 651.738 275.276 649.873C275.276 648.014 276.698 646.476 278.435 646.476ZM237.293 614.617C239.025 614.617 240.412 616.106 240.412 617.971C240.412 619.83 239.025 621.368 237.293 621.368C235.556 621.368 234.169 619.83 234.169 617.971C234.169 616.106 235.556 614.617 237.293 614.617ZM219.429 646.705C219.783 646.569 220.168 646.476 220.558 646.476C222.29 646.476 223.682 648.014 223.682 649.873C223.682 651.738 222.29 653.226 220.558 653.226H220.512C219.818 652.485 219.084 651.694 218.39 650.855C218.78 649.453 219.13 648.057 219.429 646.705ZM257.669 629.846C259.401 629.846 260.834 631.335 260.834 633.199C260.834 635.064 259.452 636.602 257.669 636.602C255.932 636.602 254.545 635.064 254.545 633.199C254.545 631.335 255.932 629.846 257.669 629.846ZM272.41 614.803L275.66 620.342C275.098 620.948 274.314 621.368 273.407 621.368C271.67 621.368 270.242 619.83 270.242 617.971C270.328 616.477 271.194 615.266 272.41 614.803ZM177.334 513.169C177.375 513.12 177.42 513.07 177.466 513.07H177.512C177.552 513.07 177.552 513.12 177.593 513.12C177.947 512.934 178.722 512.651 178.813 512.651C179.633 512.514 180.454 512.422 181.279 512.373C182.97 512.236 184.788 512.002 186.439 512.465C186.783 512.558 186.834 513.212 186.439 513.305C184.14 513.725 181.583 513.447 179.243 513.583C179.152 513.632 177.031 514.003 177.334 513.169ZM176.813 509.717C178.848 508.834 180.803 508.278 183.011 508.278C183.882 508.278 186.439 508.136 186.915 509.112C187.087 509.439 186.783 509.952 186.439 509.81H186.398C186.353 509.81 186.353 509.81 186.307 509.766C185.532 509.346 184.489 509.254 183.492 509.254C182.839 509.254 182.19 509.297 181.628 509.346C180.064 509.439 178.458 509.674 176.944 510.186C176.646 510.23 176.555 509.81 176.813 509.717ZM177.552 505.061C180.195 504.128 183.492 504.641 186.135 505.295C186.697 505.432 186.479 506.364 185.872 506.271C183.102 505.715 180.281 505.9 177.512 505.388C177.42 505.339 177.466 505.11 177.552 505.061ZM177.203 501.38C180.023 500.682 182.839 500.59 185.7 500.824C186.353 500.868 186.353 501.942 185.7 501.893C182.884 501.664 180.064 501.757 177.248 501.893C177.031 501.893 176.944 501.429 177.203 501.38ZM177.679 498.12C180.281 497.378 183.188 496.817 185.831 497.471C186.267 497.564 186.135 498.262 185.75 498.262C183.056 498.311 180.499 498.027 177.765 498.496C177.552 498.54 177.42 498.169 177.679 498.12ZM177.552 494.069C178.418 493.185 179.897 493.136 181.061 493.136C182.621 493.087 184.185 493.278 185.7 493.698C186.743 493.976 186.049 495.557 185.269 495.235C183.882 494.952 182.499 494.674 181.061 494.674C179.937 494.674 178.676 494.952 177.679 494.488C177.512 494.396 177.42 494.21 177.552 494.069ZM152.102 622.998C154.355 621.88 156.437 620.206 158.518 618.712C158.994 618.39 159.47 619.225 158.994 619.552C157.652 620.435 156.351 621.368 155.009 622.207C154.138 622.769 153.272 623.418 152.188 623.374C152.016 623.418 151.93 623.09 152.102 622.998ZM154.102 626.166C155.961 624.535 157.784 622.812 159.647 621.182C160.123 620.719 160.857 621.509 160.386 621.929C158.518 623.652 156.523 625.19 154.401 626.586C154.183 626.727 153.885 626.351 154.102 626.166ZM155.875 628.494C156.7 627.518 157.606 626.586 158.518 625.653C159.257 624.906 159.991 623.93 160.943 623.559C161.207 623.467 161.379 623.788 161.293 624.023C160.822 625.048 159.647 625.839 158.822 626.586C157.956 627.376 157.044 628.167 156.133 628.87C155.915 629.006 155.743 628.679 155.875 628.494ZM157.606 630.778C158.173 630.081 159.039 629.612 159.774 629.099C160.604 628.543 161.47 627.981 162.336 627.469C162.771 627.24 163.116 627.889 162.726 628.167L160.123 629.704C159.343 630.173 158.604 630.822 157.784 631.106C157.571 631.106 157.48 630.92 157.606 630.778ZM159.257 632.452C160.903 631.569 162.594 630.822 164.326 630.081C164.721 629.895 164.893 630.637 164.503 630.778C162.812 631.427 161.161 632.131 159.52 632.921C159.212 633.058 158.953 632.594 159.257 632.452ZM161.293 635.2C161.637 634.595 162.336 634.175 162.898 633.854C163.546 633.434 164.29 633.156 164.893 632.687C165.587 632.131 166.321 633.434 165.587 633.99C164.979 634.41 164.199 634.737 163.506 635.064C162.898 635.342 162.159 635.762 161.51 635.713C161.338 635.62 161.161 635.391 161.293 635.2ZM156.001 598.871C158.042 599.525 159.86 600.316 161.941 600.686C164.544 601.155 167.187 601.433 169.835 601.668C172.174 601.897 174.478 602.038 176.813 602.088C178.762 602.131 180.889 601.804 182.666 602.644C182.798 602.693 182.798 602.971 182.666 603.064C180.803 604.04 178.418 603.718 176.377 603.718C173.78 603.669 171.177 603.527 168.574 603.298C164.29 602.922 159.166 602.736 155.439 600.174C154.877 599.803 155.267 598.636 156.001 598.871ZM163.546 561.423C166.888 561.608 170.093 563.146 173.476 562.028C173.906 561.886 174.124 562.541 173.78 562.819C171.263 564.727 165.89 564.122 163.242 562.677C162.68 562.355 162.938 561.374 163.546 561.423ZM179.112 561.608C179.805 562.677 180.499 563.702 181.198 564.727C181.887 565.752 182.752 566.734 183.315 567.802C183.532 568.222 183.011 568.642 182.712 568.315C181.021 566.641 179.76 564.029 178.636 561.886C178.458 561.559 178.94 561.281 179.112 561.608ZM155.353 594.727C156.786 588.576 157.434 582.382 158.346 576.139C158.386 575.91 158.776 575.954 158.736 576.188C158.518 579.634 158.219 583.08 157.956 586.526C157.692 589.416 157.52 592.535 156.133 595.054C155.875 595.517 155.221 595.239 155.353 594.727ZM252.595 598.593C254.373 599.896 256.064 600.872 257.624 601.433C257.538 603.205 256.201 604.645 254.504 604.645C252.768 604.645 251.38 603.156 251.38 601.292C251.38 600.174 251.861 599.198 252.595 598.593Z" fill="#FFC300"/>
<path d="M315.284 569.296C314.985 568.969 315.415 568.5 315.765 568.784C316.286 569.247 316.717 569.76 317.106 570.365C317.41 570.878 317.846 571.576 317.714 572.181C317.669 572.508 317.284 572.557 317.066 572.366C316.676 571.995 316.585 571.297 316.327 570.829C316.068 570.272 315.719 569.76 315.284 569.296ZM338.48 571.532C338.176 572.044 337.746 572.879 337.138 572.835C336.875 572.835 336.703 572.65 336.703 572.366C336.662 571.761 337.27 571.297 337.528 570.829C337.873 570.272 338.176 569.711 338.394 569.155C338.657 568.549 339.564 568.969 339.346 569.574C339.128 570.223 338.87 570.878 338.48 571.532ZM342.992 602.785C343.812 603.62 344.764 604.743 345.027 605.997C345.159 606.559 344.465 606.929 344.116 606.417C343.508 605.441 343.118 604.367 342.339 603.483C341.949 603.015 342.556 602.366 342.992 602.785ZM327.34 607.676C326.732 607.115 326.474 606.182 326.125 605.441C325.735 604.601 325.345 603.718 324.955 602.878C324.697 602.366 325.431 601.897 325.689 602.409C326.125 603.298 326.601 604.181 327.082 605.021C327.472 605.763 327.988 606.51 328.074 607.349C328.12 607.769 327.598 607.905 327.34 607.676ZM312.772 599.432C313.03 598.827 313.987 599.241 313.77 599.896C313.248 601.526 312.772 603.342 311.992 604.879C311.643 605.577 310.559 605.114 310.777 604.323C311.212 602.644 312.078 600.97 312.772 599.432ZM322.57 591.837C322.049 591.324 321.79 590.348 321.446 589.694C321.051 588.903 320.621 588.157 320.145 587.415C319.881 587.039 320.489 586.526 320.747 586.902C321.269 587.644 321.79 588.391 322.266 589.182C322.656 589.879 323.218 590.719 323.218 591.559C323.218 591.93 322.833 592.071 322.57 591.837ZM332.541 594.214C332.718 593.843 333.28 594.122 333.194 594.492C332.89 595.659 332.718 597.055 332.11 598.08C331.761 598.685 330.981 598.265 331.067 597.611C331.285 596.401 332.024 595.283 332.541 594.214ZM342.298 594.77C341.645 594.307 341.427 593.424 341.083 592.72C340.693 591.837 340.258 590.954 339.868 590.07C339.655 589.65 340.258 589.274 340.475 589.694C340.951 590.534 341.427 591.373 341.863 592.213C342.253 592.911 342.815 593.609 342.815 594.449C342.86 594.727 342.556 594.961 342.298 594.77ZM313.683 583.642C314.114 581.87 315.243 580.24 316.155 578.751C316.458 578.282 317.066 578.702 316.848 579.171C316.109 580.752 315.592 582.568 314.727 584.062C314.377 584.711 313.511 584.34 313.683 583.642ZM328.9 577.306C329.421 578.282 329.983 579.214 330.505 580.196C330.981 581.03 331.589 581.919 331.806 582.895C331.892 583.315 331.416 583.642 331.113 583.315C330.459 582.617 330.069 581.592 329.639 580.703C329.158 579.727 328.682 578.702 328.206 577.726C327.988 577.257 328.641 576.837 328.9 577.306ZM314.985 537.012C314.727 537.574 314.549 538.272 314.028 538.599C313.815 538.741 313.466 538.599 313.425 538.321C313.294 537.667 313.683 537.061 313.987 536.5C314.332 535.851 314.727 535.197 315.111 534.591C315.461 534.079 316.241 534.548 315.937 535.104C315.592 535.758 315.284 536.363 314.985 537.012ZM319.623 559.978C320.145 560.818 320.707 561.657 321.314 562.448C321.745 563.053 322.398 563.609 322.484 564.356C322.53 564.591 322.221 564.776 322.049 564.727C321.355 564.498 320.879 563.566 320.489 562.961C319.927 562.121 319.451 561.281 318.929 560.398C318.58 559.929 319.319 559.515 319.623 559.978ZM334.363 560.769C333.974 561.467 333.624 562.355 332.89 562.677C332.672 562.775 332.409 562.541 332.454 562.306C332.5 561.467 333.194 560.769 333.584 560.071C334.105 559.231 334.576 558.348 335.012 557.415C335.275 556.903 335.923 557.372 335.705 557.884C335.315 558.86 334.885 559.836 334.363 560.769ZM323.958 549.449C323.264 549.079 322.96 548.01 322.53 547.356C321.963 546.516 321.314 545.769 320.575 545.071C320.271 544.793 320.707 544.188 321.011 544.466C321.79 545.12 322.57 545.818 323.218 546.658C323.74 547.307 324.606 548.288 324.52 549.171C324.479 549.406 324.216 549.591 323.958 549.449ZM331.806 538.086C331.285 537.901 330.935 537.389 330.637 536.92C330.242 536.407 329.897 535.851 329.553 535.289C329.29 534.919 329.852 534.455 330.156 534.777C330.591 535.246 331.021 535.758 331.457 536.271C331.806 536.734 332.196 537.154 332.282 537.759C332.282 537.945 332.024 538.13 331.806 538.086ZM168.189 557.088C169.577 558.206 171.268 558.397 172.782 559.138C173 559.231 172.828 559.558 172.61 559.558C171.658 559.417 170.747 559.046 169.835 558.768C169.096 558.533 168.407 558.299 167.759 557.884C167.323 557.557 167.799 556.767 168.189 557.088ZM266.429 502.405C265.386 502.313 263.391 502.078 262.961 500.775C262.875 500.541 263.173 500.312 263.356 500.448C263.827 500.824 264.222 501.102 264.824 501.288C265.432 501.473 265.994 501.664 266.556 501.942C266.733 502.035 266.642 502.405 266.429 502.405ZM265.822 493.463C265.169 493.278 264.439 492.951 263.867 493.512C264.044 493.649 264.13 493.883 264.222 494.069C264.303 494.303 264.475 494.488 264.606 494.674C264.693 494.767 264.52 494.908 264.439 494.859C264.222 494.723 264.044 494.581 263.867 494.396C263.786 494.303 263.655 494.21 263.568 494.118C263.477 494.538 263.523 495.001 263.568 495.421C263.609 495.933 262.784 495.982 262.784 495.421C262.784 494.538 262.961 493.463 263.741 493C264.348 492.624 265.523 492.531 266.08 493C266.252 493.229 266.039 493.512 265.822 493.463ZM283.732 538.136C279.18 537.389 276.4 528.119 281.347 525.977C281.6 525.835 281.777 526.304 281.56 526.489C279.129 528.163 279.392 531.238 280.562 533.664C281.382 535.431 282.512 536.314 284.162 537.154C284.638 537.432 284.203 538.228 283.732 538.136ZM284.117 545.774C278.785 545.725 275.574 538.833 274.536 534.128C273.453 529.286 273.929 522.296 279.043 520.246C279.392 520.104 279.519 520.622 279.261 520.851C274.663 524.112 274.536 529.701 276.05 534.919C276.704 537.203 277.661 539.39 279.18 541.205C280.694 543.026 282.431 543.675 284.38 544.657C284.937 544.886 284.638 545.774 284.117 545.774ZM264.348 570.414C271.675 570.55 279.215 572.044 286.37 573.582C287.236 573.767 286.892 575.212 285.98 575.021C278.785 573.533 271.458 572.557 264.257 571.019C263.958 570.927 264.044 570.414 264.348 570.414ZM265.214 508.883C263.265 508.834 261.487 507.487 259.619 507.531C259.234 507.531 258.971 506.926 259.274 506.647C260.272 505.715 261.224 506.506 262.308 506.876C264.693 507.765 266.86 507.902 269.204 506.74C269.549 506.555 269.984 507.018 269.64 507.345C268.465 508.507 266.819 508.927 265.214 508.883ZM261.786 529.984C261.837 529.657 262.272 529.793 262.221 530.12C261.442 534.64 260.702 539.112 260.1 543.675C259.492 548.195 259.234 552.852 258.277 557.279C258.191 557.792 257.411 557.699 257.411 557.137C257.538 552.759 258.495 548.195 259.234 543.861C260.009 539.253 260.88 534.591 261.786 529.984ZM245.182 553.833C243.101 554.019 240.544 552.296 240.417 549.918C240.377 549.449 241.025 549.406 241.111 549.826C242.367 554.111 247.917 553.599 249.735 550.196C249.821 550.06 250.084 550.104 250.038 550.289C249.821 552.525 247.005 553.691 245.182 553.833ZM227.191 561.608C228.579 561.657 230.012 561.886 231.399 562.17C231.526 561.843 231.703 561.516 231.829 561.189C232.047 560.632 232.179 560.027 232.305 559.422C232.356 559.231 232.655 559.28 232.655 559.466C232.574 560.349 232.397 561.423 232.047 562.355C234.776 562.961 237.556 563.751 240.24 564.264C245.01 565.147 249.78 565.85 254.55 566.407C254.591 565.24 254.682 564.122 254.808 563.102C254.808 562.961 255.026 562.912 255.026 563.053C255.335 565.523 255.674 568.408 255.335 570.878C255.284 571.156 254.899 571.112 254.854 570.878C254.636 569.902 254.55 568.827 254.504 567.71C249.866 567.154 245.268 566.456 240.716 565.523C236.296 564.635 231.181 563.986 227.065 561.936C227.019 561.794 227.065 561.608 227.191 561.608ZM155.049 692.168C154.143 691.334 153.272 690.167 153.145 688.815C153.1 688.537 153.49 688.351 153.707 688.586C154.487 689.469 155.095 690.445 155.961 691.143C156.437 691.519 156.918 691.797 157.48 692.032C157.915 692.217 158.26 692.261 158.477 692.773C158.604 693.008 158.518 693.286 158.305 693.427C157.308 694.125 155.788 692.822 155.049 692.168ZM196.495 697.571C194.505 698.874 191.427 699.158 189.518 697.435C189.173 697.108 189.563 696.595 189.953 696.688C192.12 697.244 193.771 697.479 195.761 696.268C196.586 695.756 197.28 697.015 196.495 697.571ZM172.742 616.155C173.132 616.248 173.304 616.667 173.344 617.038C173.395 617.316 173.177 617.458 172.959 617.502C172.868 617.643 172.696 617.736 172.529 617.736C172.311 617.736 172.002 617.551 171.962 617.273C171.916 616.989 171.916 616.804 171.962 616.526C172.093 616.248 172.438 616.062 172.742 616.155ZM172.093 611.586C172.478 611.586 172.782 612.196 172.438 612.475L172.392 612.518C172.22 612.704 171.962 612.704 171.785 612.518L171.744 612.475C171.445 612.147 171.698 611.586 172.093 611.586ZM155.571 614.29C156.654 613.265 158.26 612.845 159.52 611.962C160.989 610.937 162.341 609.677 163.506 608.282C163.678 608.047 164.073 608.374 163.895 608.609C162.943 610.146 161.814 611.493 160.427 612.611C159.212 613.592 157.434 615.037 155.834 614.988C155.53 615.037 155.267 614.568 155.571 614.29ZM177.684 610.097C177.552 609.819 177.896 609.634 178.028 609.863C179.248 611.777 180.332 613.729 181.932 615.266C183.709 616.989 185.968 618.014 188.176 618.903C188.738 619.132 188.479 620.113 187.917 619.879C183.365 617.922 179.897 614.895 177.684 610.097ZM172.61 625.375C173.304 625.141 174.043 625.141 174.732 624.955C174.777 624.912 174.863 624.912 174.914 624.912C174.949 624.912 174.995 624.863 175.035 624.863C175.906 624.492 176.6 623.887 177.294 623.189C177.512 622.954 177.947 623.281 177.77 623.559C177.248 624.35 176.382 625.19 175.385 625.746C177.031 630.315 178.504 634.922 180.023 639.492C181.365 643.494 183.537 647.921 182.363 652.25C182.19 652.948 181.238 652.67 181.325 651.923C182.104 647.316 179.805 642.332 178.504 638.047C177.294 634.039 175.998 630.032 174.863 625.98C174.083 626.307 173.304 626.4 172.564 626.166C172.261 626.029 172.261 625.468 172.61 625.375ZM233.825 589.274C237.161 589.885 240.544 589.65 243.845 590.114C244.099 590.163 244.099 590.626 243.845 590.676C240.544 591.417 236.772 591.281 233.48 590.583C232.7 590.441 233.045 589.138 233.825 589.274ZM245.836 541.86C245.228 543.07 243.537 543.632 242.407 544.095C242.326 544.144 242.235 543.953 242.326 543.91C242.888 543.539 243.451 543.212 244.013 542.836C244.575 542.465 245.01 541.952 245.532 541.532C245.749 541.396 245.922 541.674 245.836 541.86ZM246.701 538.741C246.701 538.457 246.661 538.179 246.57 537.945C246.443 538.086 246.311 538.136 246.139 538.228C246.013 538.321 245.922 538.365 245.749 538.365C245.658 538.365 245.618 538.228 245.618 538.179C245.658 538.043 245.749 537.945 245.876 537.852C246.013 537.759 246.094 537.623 246.23 537.53C245.962 537.339 245.577 537.11 245.314 537.247C245.147 537.339 244.97 537.154 245.056 536.969C245.314 536.456 246.18 536.827 246.484 537.061C246.96 537.432 247.314 538.136 247.223 538.833C247.177 539.161 246.701 539.062 246.701 538.741ZM334.971 657.796C335.574 657.561 336.485 657.141 337.483 656.302H342.253L343.164 660.729C339.128 660.822 335.098 660.914 331.107 661.007C331.153 660.451 331.285 659.66 331.806 659.05C332.5 658.215 333.452 658.352 334.971 657.796ZM321.831 657.517C322.439 657.283 323.264 656.956 324.261 656.302H328.682C328.728 657.61 328.814 658.957 328.854 660.265C325.603 660.309 322.398 660.309 319.147 660.358C319.015 659.889 318.929 659.24 319.233 658.679C319.623 657.981 320.489 657.981 321.831 657.517ZM147.418 693.008C148.416 692.31 149.459 692.402 149.768 692.451C151.844 698.133 153.272 700.881 154.102 700.696C154.442 700.603 154.659 700.041 154.75 699.016C155.571 700.788 156.351 702.135 156.918 703.067C157.571 704.142 158.001 704.698 158.001 705.537C157.956 706.748 157.004 707.68 156.396 708.193C153.019 703.536 149.677 698.924 146.299 694.267C146.517 693.94 146.816 693.427 147.418 693.008ZM190.647 702.419C190.166 704.049 189.649 705.63 189.168 707.26C194.07 708.613 198.971 709.965 203.868 711.312C203.908 710.706 203.908 709.916 203.564 709.125C202.875 707.353 201.007 706.284 198.794 706.235C198.323 706.421 197.842 706.513 197.457 706.562C193.852 706.89 191.077 703.067 190.647 702.419Z" fill="#3B5672"/>
<path d="M183.421 423.372C167.045 423.372 153.768 437.897 153.768 455.825C153.768 473.747 167.045 488.278 183.421 488.278C199.797 488.278 213.074 473.747 213.074 455.825C213.074 437.897 199.797 423.372 183.421 423.372Z" fill="#FFC300"/>
</g>
<defs>
<clipPath id="clip0_80_2">
<rect width="1400" height="1072" fill="white" transform="translate(0 -48)"/>
</clipPath>
</defs>
</svg>
